<mxfile host="app.diagrams.net" modified="2023-09-27T05:43:47.430Z" agent="Mozilla/5.0 (Windows NT 10.0; Win64; x64) AppleWebKit/537.36 (KHTML, like Gecko) Chrome/117.0.0.0 Safari/537.36" version="21.8.2" etag="UlJ_p2Po5scpc_v7IeSW" type="github">
  <diagram name="Sivu-1" id="hsSeIl6t2iAaWAp9BTKl">
    <mxGraphModel>
      <root>
        <mxCell id="0" />
        <mxCell id="1" parent="0" />
      </root>
    </mxGraphModel>
  </diagram>
</mxfile>
